<?xml version="1.0" encoding="UTF-8"?>
<!DOCTYPE svg PUBLIC "-//W3C//DTD SVG 1.1//EN" "http://www.w3.org/Graphics/SVG/1.1/DTD/svg11.dtd">
<!-- Creator: CorelDRAW 2020 (64-Bit) -->
<svg xmlns="http://www.w3.org/2000/svg" xml:space="preserve" width="279.4mm" height="241.3mm" version="1.1" style="shape-rendering:geometricPrecision; text-rendering:geometricPrecision; image-rendering:optimizeQuality; fill-rule:evenodd; clip-rule:evenodd"
viewBox="0 0 27940 24130"
 xmlns:xlink="http://www.w3.org/1999/xlink"
 xmlns:xodm="http://www.corel.com/coreldraw/odm/2003">
 <defs>
  <style type="text/css">
   <![CDATA[
    .fil0 {fill:#373435}
   ]]>
  </style>
 </defs>
 <g id="Capa_x0020_1">
  <metadata id="CorelCorpID_0Corel-Layer"/>
  <g id="_2283718246000">
   <path class="fil0" d="M6207.28 20276.46l0 -1452.43c358.51,0 603.08,30.58 902.87,-39.24 0,227.57 -11.8,485.39 -2.21,708.78 9.73,226.56 130.14,390.35 355.49,390.35l10638.03 0c213.72,0 353.29,-139.57 353.29,-353.3l0 -15741.13c296.23,0 902.86,-47.17 902.86,471.06l0 16094.42c0,330.62 -300.32,471.06 -628.07,471.06l-11894.18 0c-363.06,0 -628.08,-162.12 -628.08,-549.57zm6432.3 -18960.02l375.02 0c674.55,21.97 1331.11,164.24 1868.63,431.14 693.04,344.13 980.71,519.25 980.71,1453.08l3140.37 0c288.61,0 574.19,218.19 717.24,381.9 157.53,180.25 264.14,467.8 264.14,795.74l0 15898.16c0,322.48 -145.65,617.08 -303.49,795.65 -133.05,150.5 -449.61,342.73 -717.13,342.73l-12365.24 0c-221.13,0 -534.22,-173.61 -657.08,-285.03 -515.22,-467.25 -363.54,-1626.03 -363.54,-2423.53 -1781.15,-414.97 -2774.85,-2017.03 -2826.34,-3618.77l0 -266.65c27.55,-819.97 305.42,-1622.5 854.77,-2247.15 246.38,-280.14 515.87,-556.43 849.45,-760 329.41,-201.03 709.05,-391.09 1122.12,-487.32 0,-680.42 0,-1360.83 0,-2041.26 0,-453.2 -155.34,-1727.19 274.79,-1727.19 210.45,0 353.28,92.37 353.28,314.04l0 3336.64 902.87 39.26 0 -7458.39c-942.94,0 -902.87,91.09 -902.87,1256.14 0,300.9 -1.72,602.3 0.29,903.14 2.19,330.62 14.36,588.55 -314.32,588.55 -111.75,0 -188.75,-42.85 -248.47,-144.08 -120.09,-203.52 -65.57,-1533.92 -65.57,-1897.16 0,-576.92 213.03,-1041.79 699.67,-1223.82 366.24,-136.97 2616.34,-78.7 3109.41,-70.23 690.56,11.87 123.23,-199.01 471.04,-824.36 25.62,-46.1 86.06,-125.26 131.46,-182.57 74.75,-94.29 65.26,-82.31 164.22,-149.82 663.32,-452.51 1573.35,-698.82 2484.57,-728.84zm-9297.88 13778.4c0,-1565.61 1021.53,-2875.73 2489.06,-3202.86 1142.39,-254.65 2297.64,157.54 2977.5,837.4 766.26,766.27 1073.59,1925.43 844.36,2984.44 -217.42,1004.32 -820.12,1786.3 -1757.82,2206.92 -439.35,197.08 -765.81,234.32 -1306.91,305.21 -693.86,90.9 -1724.79,-368.57 -2255.1,-903.33 -569.57,-574.32 -991.09,-1330.68 -991.09,-2227.78zm4396.52 -11305.35l2001.99 0c0,343.85 213.68,643.46 440.95,815.19 63.87,48.27 91.19,64.97 174.18,100.6 111.82,48 266.88,104.83 405.49,104.83l4003.98 0c436.58,0 833.39,-271.3 994.62,-654.08 201.7,-478.88 -390.51,-366.54 2067.24,-366.54l0 15466.35 -10088.45 0 0 -628.07c814.82,-189.84 1971.09,-1209.74 2119.76,-1766.47l3297.39 0c375.68,0.24 785.1,68.36 785.1,-314.04 0,-369.67 -343.05,-314.54 -706.57,-314.05l-3061.88 0.01c10.38,-124.85 30.44,-135.34 60.91,-253.11l126.24 -858.26c34.87,-285.86 -76.39,-858.38 -147.91,-1165.4l3022.74 0.12c499.06,1.99 706.47,8.12 706.47,-392.67 0,-323.49 -583.36,-235.54 -824.36,-235.52l-3179.62 0c-148.39,-636.91 -1360.9,-1728.4 -2198.27,-1923.48l0 -7615.41zm2590.81 -117.77c0,-1012.79 -162.61,-1104.32 970.24,-1502.81 1232.02,-433.36 2402,-312.54 3544.43,246.27 510.71,249.82 392.16,438.98 392.16,1335.05 0,229.36 -202.44,431.81 -431.79,431.81l-4043.24 0c-251.54,0 -431.8,-242.21 -431.8,-510.32z"/>
   <path class="fil0" d="M21712.9 19491.37c-32.49,-139.39 -114.35,-305.18 -173.82,-454.27 -57.02,-143 -150.24,-323.03 -179.48,-448.6l745.84 0 -392.54 902.87zm-510.32 -13189.58c0,-224.56 271.91,-510.32 471.05,-510.32 268.37,0 549.57,172.86 549.57,431.81l0 1334.66 -1020.62 0 0 -1256.15zm-588.82 -117.77l0 8636.03c0,418.7 588.82,310.91 588.82,39.27l0 -6673.3 1020.62 0 0 9774.41 -1020.62 0 0 -1570.19c0,-451.41 -588.82,-344.65 -588.82,-78.51l0 2002c0,115.53 594.28,1542.51 712.18,1839.37 67.58,170.13 147.78,476.65 386.96,476.65 329.51,0 466.88,-617.29 661.71,-1104.74 96.58,-241.7 476.66,-1089.86 476.66,-1289.79l0 -11933.43c0,-285.63 -142.04,-585.46 -283.1,-737.53 -716.77,-772.8 -1954.41,-210.89 -1954.41,619.76z"/>
   <path class="fil0" d="M8758.85 7793.47c0,204.99 134.8,314.04 235.52,314.04l4710.57 0c267.06,0 437.46,-628.08 -196.28,-628.08l-4278.76 0c-264.37,0 -471.05,47.38 -471.05,314.04z"/>
   <path class="fil0" d="M8758.85 10698.32c0,191.28 51.05,314.04 274.77,314.04l4632.06 0c376.83,0 376.83,-588.83 0,-588.83l-4632.06 0c-183.25,0 -274.77,91.54 -274.77,274.79z"/>
   <path class="fil0" d="M15471.39 7793.47c0,-450.37 745.85,-508.82 745.85,39.25 0,447.36 -745.85,495.66 -745.85,-39.25zm274.79 981.36c325.03,0 559.76,-27.45 815.9,-283.23 893.98,-892.76 -485.12,-2278.84 -1376.67,-1415.92 -756.96,732.7 -82.99,1699.15 560.77,1699.15z"/>
   <path class="fil0" d="M15471.39 10737.57c0,-527.52 745.85,-527.52 745.85,0 0,470.01 -745.85,470.01 -745.85,0zm1373.92 39.24c0,-1301.34 -1853.15,-1437.87 -1987.35,-102.2 -78.66,782.92 948.39,1400.61 1644.54,780.03 181.27,-161.59 342.81,-482.58 342.81,-677.83z"/>
   <path class="fil0" d="M15471.39 16547.26c0,-496.8 745.85,-496.8 745.85,0 0,487.54 -745.85,473.68 -745.85,0zm314.04 981.38c1378,0 1398.43,-1962.74 39.26,-1962.74 -579.94,0 -927.6,435.59 -972.84,952.08 -42.96,490.31 463.62,1010.66 933.58,1010.66z"/>
   <path class="fil0" d="M15471.39 13681.68c0,-587.63 745.85,-543.26 745.85,-39.27 0,493.57 -745.85,429.73 -745.85,39.27zm353.3 942.11c410.25,0 770.88,-259.2 904.29,-548.13 353.2,-764.97 -244.98,-1414.61 -786.53,-1414.61 -326.74,0 -597.26,29.68 -835.49,302.9 -118.33,135.69 -266.34,482.43 -252.86,709.98 28.7,484.56 444.28,949.86 970.59,949.86z"/>
   <path class="fil0" d="M4951.13 16154.71c0,440.86 1641.49,1393.81 2917.66,366.09 127.09,-102.34 261.98,-152.68 261.98,-366.09 0,-221.65 -142.85,-314.03 -353.3,-314.03 -219.59,0 -264.12,510.31 -1373.91,510.31 -652.35,0 -897.43,-510.31 -1138.39,-510.31 -189.89,0 -314.04,124.15 -314.04,314.03z"/>
   <path class="fil0" d="M11781.45 3475.45l2002 0c451.41,0 344.65,-588.82 78.51,-588.82l-2159.02 0c-256.08,0 -363.6,588.82 78.51,588.82z"/>
   <path class="fil0" d="M4754.87 14820.05c175.65,0 253.73,-33.56 310.5,-278.3 94.7,-408.29 476.59,-350.9 550.61,-33.24 63.73,273.56 117.18,311.54 316.53,311.54 587.43,0 296.42,-1177.64 -628.08,-1177.64 -775.62,0 -1167.37,1177.64 -549.56,1177.64z"/>
   <path class="fil0" d="M6796.11 14545.28c0,247.23 216.33,274.77 392.55,274.77 352.01,0 70.63,-549.56 510.3,-549.56 469.34,0 56.95,549.56 588.83,549.56 543.24,0 286.3,-1177.64 -628.08,-1177.64 -463.59,0 -863.6,428.92 -863.6,902.87z"/>
  </g>
 </g>
</svg>
