<?xml version="1.0" encoding="UTF-8"?>
<!DOCTYPE svg PUBLIC "-//W3C//DTD SVG 1.1//EN" "http://www.w3.org/Graphics/SVG/1.1/DTD/svg11.dtd">
<!-- Creator: CorelDRAW 2020 (64-Bit) -->
<svg xmlns="http://www.w3.org/2000/svg" xml:space="preserve" width="279.4mm" height="241.3mm" version="1.1" style="shape-rendering:geometricPrecision; text-rendering:geometricPrecision; image-rendering:optimizeQuality; fill-rule:evenodd; clip-rule:evenodd"
viewBox="0 0 27940 24130"
 xmlns:xlink="http://www.w3.org/1999/xlink"
 xmlns:xodm="http://www.corel.com/coreldraw/odm/2003">
 <defs>
  <style type="text/css">
   <![CDATA[
    .fil0 {fill:#373435}
   ]]>
  </style>
 </defs>
 <g id="Capa_x0020_1">
  <metadata id="CorelCorpID_0Corel-Layer"/>
  <g id="_2246810580656">
   <path class="fil0" d="M12598.44 14494.81l0 -1406.8 2930.85 0 0 1406.8c0,275.05 -282.11,460.86 -487.61,254.28 -155.69,-156.51 -25.42,-605.97 -372.11,-605.97 -108.03,0 -196.69,49.04 -284.23,67.47 -728.39,153.41 -1059.79,-309.44 -1184.53,144.1 -48.19,175.16 2.12,253.68 -95.9,373.6 -185.83,227.33 -506.47,70.58 -506.47,-233.48zm0 -3126.22c0,-162.89 586.18,-254.53 586.18,-859.72l0 -2110.2 1758.49 0 0 2110.2c0,599.68 586.18,698.75 586.18,859.72l0 1133.26 -2930.85 0 0 -1133.26zm2930.85 -976.94l0 -1992.98c740.58,16.5 586.16,698.82 586.16,1563.11 0,752.81 -586.16,968.51 -586.16,429.87zm-3517.01 -429.87c0,-933.48 -161.79,-1546.45 586.16,-1563.11l0 1992.98c0,175.29 -147.12,470.07 -381.63,187.4 -126.26,-152.19 -204.53,-353.24 -204.53,-617.27zm-586.17 -1172.33c0,866.37 -145.95,1685.08 360.85,2218.28 44.34,46.67 171.27,156.32 193.27,197.51 81.85,153.32 34.03,2781.04 31.79,3172.6 -3.4,589.75 108.08,762.66 586.42,1015.77l0 5080.12c-218.75,50.96 -1172.33,298.54 -1172.33,547.09 0,596.2 586.67,279.71 971.97,151.33 977.53,-325.74 786.54,-3.96 786.54,-2027.08 0,-1250.49 0,-2500.97 0,-3751.46 935.56,-495.05 -5.5,-547.09 1133.25,-547.09 220.87,0 -38.4,195.93 625.24,547.09l-1.23 5120.41c-2.61,214.91 -31.34,270.65 84.07,384.87 113.31,112.13 483.79,199.93 674.39,263.48 235.07,78.39 528.03,210.14 766.81,210.14 182.83,0 234.47,-200.32 234.47,-351.69 0,-207.84 -340.16,-276.27 -522.76,-336.97 -220.98,-73.44 -435.76,-160.31 -649.57,-210.12l0 -5080.12c439.65,-232.65 590.76,-397.78 586.69,-976.42 -2.47,-351.62 -25.42,-3074.28 18.7,-3185.68 27.84,-70.33 566.94,-514.03 566.94,-1035.26l0 -1406.8c0,-477.89 -499.07,-976.94 -976.95,-976.94l-3321.61 0c-477.89,0 -976.95,499.05 -976.95,976.94z"/>
   <path class="fil0" d="M6150.61 13322.48c0,-599.78 154.24,-1030.15 458.55,-1417.19 218.07,-277.36 127.61,-512.64 127.61,-1044.72 0,-508.01 0.29,-1016.03 0,-1524.03 -0.7,-1145.51 119.87,-937.87 2305.6,-937.87 659.11,0 626.35,433.7 625.29,898.74l-2.99 2269.5c10.43,455.64 589.1,532.06 589.1,1755.57l0 1524.04 -4103.16 0 0 -1524.04zm-586.18 -312.63l0 2188.36c0,342.18 721.26,234.47 1172.34,234.47l0 5041.05c-218.75,50.96 -1172.34,298.54 -1172.34,547.09 0,613.82 626.21,266.53 1089.2,112.24 184.06,-61.33 669.31,-156.4 669.31,-385.8l0 -5314.58 1758.5 0 0 5314.58c0,288.28 1419.13,625.25 1524.04,625.25 182.83,0 234.47,-200.32 234.47,-351.69 0,-248.55 -953.6,-496.13 -1172.34,-547.09l0 -5041.05c451.06,0 1172.34,107.71 1172.34,-234.47l0 -2188.36c0,-461.12 -220.19,-977.51 -413.65,-1266.71 -198.82,-297.23 -175.01,-180.68 -172.66,-647.96 2.54,-504.4 43.4,-2250.43 -31.38,-2508.69 -107.55,-371.5 -491.71,-773.98 -945.43,-773.98l-2149.28 0c-451.85,0 -823,395.21 -935.83,744.51 -93.37,289.03 -41.91,1918.09 -41.1,2459.89 0.71,479.27 47.91,403.64 -156.68,703.03 -195.69,286.37 -429.51,810.11 -429.51,1289.91z"/>
   <path class="fil0" d="M21234.65 11915.67l742.47 0 0 586.18 -1680.34 0c40.08,-172.07 182.71,-348.21 312.77,-429.72 163.98,-102.75 358.08,-156.46 625.1,-156.46zm-3360.69 0l742.47 0c249.38,0 432.47,44.39 600.46,142.03 151.03,87.8 295.81,265.58 337.4,444.15l-1680.33 0 0 -586.18zm2344.67 -312.62c0,-703.58 2.39,-1407.6 -0.94,-2111.12 -1.66,-356.25 62.43,-631.14 243.33,-811.78 365.66,-365.09 922.66,-281.48 1516.1,-281.48l0 2930.84c-794.1,0 -1202.31,-98.9 -1758.49,273.54zm-2344.67 -3204.38c872.43,0 1765.26,-146.28 1759.41,1093.26 -3.31,703.52 -0.92,1407.54 -0.92,2111.12 -556.19,-372.44 -964.41,-273.54 -1758.49,-273.54l0 -2930.84zm-586.18 -351.69l0 4806.56c0,94.1 140.37,234.47 234.47,234.47l4806.58 0c94.09,0 234.46,-140.37 234.46,-234.47l0 -4806.56c0,-94.11 -140.37,-234.47 -234.48,-234.47 -671.98,0 -1512.71,-97.71 -1962.34,186.93 -323.57,204.85 -324.9,269.36 -460.47,360.16 -472.23,-705.2 -1513.55,-547.09 -2383.75,-547.09 -94.1,0 -234.47,140.36 -234.47,234.47z"/>
   <path class="fil0" d="M6736.77 5194.29c0,-1246.71 1516.03,-1988.46 2473.12,-1066.32 762.83,734.94 500.54,1942.34 -390.22,2367.67 -546.72,261.04 -1198.73,136.78 -1625.2,-274.1 -103.62,-99.83 -248.16,-293.16 -313.16,-429.3 -53.02,-111.03 -144.54,-456.93 -144.54,-597.95zm-313.87 -3829.63l175.55 0c331.5,26.78 762.08,185.69 981.41,329.24 352.29,230.58 418.85,391.13 641.86,647.71 56.14,-210.21 450.5,-554.81 626.61,-662.97 405.15,-248.85 696.41,-313.98 1170.97,-313.98 458.73,0 258.37,1312.84 -569.27,1931.71l-173.2 139.41c210.02,56.09 566.35,458.27 677.44,651.21 241.55,419.61 299.5,674.42 299.5,1185.45 0,1014.02 -939.88,1953.9 -1953.89,1953.9l-195.38 0c-1014.02,0 -1953.89,-939.88 -1953.89,-1953.9l0 -273.53c0,-578.57 572.29,-1455.08 976.94,-1563.12l-362.23 -302.1c-433.98,-431.37 -614.71,-890.78 -614.71,-1534.56 0,-149.24 110.25,-218.12 272.29,-234.47zm2150.53 1680.36c14.92,-179.34 60.39,-240.31 138.34,-369.67 177.55,-294.71 528.4,-617.3 877.69,-646.36 -35.4,425.15 -590.88,980.63 -1016.03,1016.03zm-1758.51 -1016.03c438.12,36.46 980.56,589.85 1016.03,1016.03 -250.08,-20.82 -510.25,-217.97 -655.74,-360.31 -125.51,-122.78 -127.05,-128.57 -221.94,-286.06 -87.5,-145.24 -113.3,-174.31 -138.35,-369.66z"/>
   <path class="fil0" d="M12598.44 5194.29c0,-163.85 71.2,-456.53 121.39,-582.01 52.09,-130.24 195.78,-339.94 297.25,-445.24 99.82,-103.62 293.15,-248.16 429.3,-313.17 1417.88,-677.02 2793.6,1156.43 1664.27,2328.58 -734.94,762.83 -1942.36,500.55 -2367.67,-390.21 -53.02,-111.03 -144.54,-456.93 -144.54,-597.95zm0 -1484.96c0,-585.7 91.64,-915.34 362.55,-1239.63 562.22,-672.99 1608.48,-677.89 2187.5,-20.86 283.67,321.88 380.8,664.12 380.8,1260.49 -511.02,-342.19 -638.2,-586.16 -1563.12,-586.16 -312.41,0 -573.81,91.81 -782.25,194.69 -447.26,220.77 -308.5,206 -585.48,391.47zm-586.16 -390.78l0 1953.89c0,1014.02 939.88,1953.9 1953.89,1953.9l195.38 0c1014.02,0 1953.9,-939.88 1953.9,-1953.9l0 -1953.89c0,-1014.01 -939.88,-1953.89 -1953.9,-1953.89l-195.38 0c-1014.01,0 -1953.89,939.88 -1953.89,1953.89z"/>
   <path class="fil0" d="M3219.76 10391.65c126.73,84.84 205.9,194.99 321.72,303.51 106.9,100.15 261.46,192.78 388.88,275.45 421.23,273.32 812.94,283.66 969.76,358.9 -168.62,723.73 -1367.96,794.74 -1624.06,-17.22 -80.52,-255.26 -56.3,-602.84 -56.3,-920.64zm156.31 -976.96c382.54,89.12 188.93,156.32 820.65,156.32 334.58,0 579.24,-138.07 781.55,-273.54l0 1406.8c-541.56,-12.07 -1226.93,-523.18 -1486.18,-1014.81l-116.02 -274.77zm-156.31 -1250.49c-10.85,-59.35 46.9,-308.14 66.43,-363.42 300.88,-851.31 1602.26,-711.57 1683.48,255.71 71.17,847.73 -1145.73,1320.37 -1632.95,459.69 -39.25,-69.34 -47.71,-93.82 -67.75,-166.71 -11.35,-41.26 -49.13,-184.9 -49.21,-185.27zm-586.16 -156.31l0 3126.23c0,693.99 673.73,1367.73 1367.72,1367.73l195.4 0c693.97,0 1367.71,-673.74 1367.71,-1367.73l0 -3126.23c0,-694.43 -668.8,-1367.71 -1367.71,-1367.71l-195.4 0c-693.99,0 -1367.72,673.72 -1367.72,1367.71z"/>
   <path class="fil0" d="M18733.67 7226.34c186.21,0 285.91,-5.62 352.62,-198.15 61.85,-178.56 -104.86,-480.53 -210.92,-725.11 -158.28,-364.98 -769.71,-275.4 -527.89,331.94 69.53,174.63 204.79,591.32 386.19,591.32z"/>
   <path class="fil0" d="M21039.25 7226.34c164.1,0 221.43,-27.67 313.42,-233.67 46.55,-104.26 91.6,-213.75 139.64,-329.54 270.95,-653.13 -354.3,-699.16 -505.32,-387.84 -57.21,117.95 -93,250.39 -144.32,363.79 -48.8,107.88 -133.65,223.38 -92.95,366.32 39.61,139.13 125.72,220.94 289.53,220.94z"/>
   <path class="fil0" d="M19632.45 6054l0 664.33c0,386.79 586.18,386.79 586.18,0 0,-385.21 95.3,-898.8 -273.56,-898.8 -142.81,0 -312.62,107.85 -312.62,234.47z"/>
   <path class="fil0" d="M8495.28 9219.31c0,480.47 586.16,480.47 586.16,0 0,-311.48 -586.16,-311.48 -586.16,0z"/>
   <path class="fil0" d="M8495.28 10391.65c0,480.47 586.16,480.47 586.16,0 0,-311.49 -586.16,-311.49 -586.16,0z"/>
  </g>
 </g>
</svg>
