<?xml version="1.0" encoding="UTF-8"?>
<!DOCTYPE svg PUBLIC "-//W3C//DTD SVG 1.1//EN" "http://www.w3.org/Graphics/SVG/1.1/DTD/svg11.dtd">
<!-- Creator: CorelDRAW 2020 (64-Bit) -->
<svg xmlns="http://www.w3.org/2000/svg" xml:space="preserve" width="279.4mm" height="241.3mm" version="1.1" style="shape-rendering:geometricPrecision; text-rendering:geometricPrecision; image-rendering:optimizeQuality; fill-rule:evenodd; clip-rule:evenodd"
viewBox="0 0 27940 24130"
 xmlns:xlink="http://www.w3.org/1999/xlink"
 xmlns:xodm="http://www.corel.com/coreldraw/odm/2003">
 <defs>
  <style type="text/css">
   <![CDATA[
    .fil0 {fill:#373435}
   ]]>
  </style>
 </defs>
 <g id="Capa_x0020_1">
  <metadata id="CorelCorpID_0Corel-Layer"/>
  <g id="_2283418324640">
   <path class="fil0" d="M3642.76 20356.16c-0.23,-13.28 18.88,-36.96 20.86,-31.34l303.87 -870.68c189.91,-569.92 895.48,-2508.91 895.48,-2863.01 0,-181.46 -292.47,-583.76 -378.84,-756.54l-348.3 -787.09c-211.1,-527.91 -420.83,-1185.81 -520.46,-1789.46l-139.47 -995.91c-27.68,-191.6 -74.39,-935.52 -50.94,-1102.2 23.82,-169.31 17.73,-306.7 28.42,-519.93 70.52,-1407 738.09,-3121.34 1511.25,-4283.1 91.12,-136.94 155.23,-215.14 242.81,-344.46l506.98 -628.4c483.13,-519.64 546.29,-634.02 1172.07,-1137.85 4277.59,-3443.92 10323.77,-2505.19 13394.67,2016.39 635.44,935.61 1086.41,1921.59 1385.45,3195.23 517.84,2205.56 84.12,4622.66 -1067.08,6543.88 -2076.36,3465.22 -6097.27,5320.79 -10146.18,4356.16 -598.57,-142.6 -1230.86,-331.39 -1740.74,-569.17l-1136.52 -588.91c-186.27,-80.77 -241.02,-46.05 -437.59,18.72l-3024.38 1008.7c-78.48,26.12 -121.04,39.59 -206.39,67.68l-194.48 79.58c-5.38,2.81 -16.96,8.88 -24.81,14.33l-45.68 -32.62zm19033.96 -9454.5l0 934.13c-58.43,1123.48 -326.28,2222.67 -776.96,3351.97 -649.21,1626.79 -2103.19,3382.82 -3513.92,4355.44 -480.62,331.35 -968.23,652.07 -1525.92,901.44 -650,290.66 -1037.01,468.81 -1770.16,657.21 -711.66,182.88 -1478.45,285.85 -2252.48,304.86l-525.01 0c-910.29,-22.47 -1815.69,-162.08 -2638.61,-425.76 -414.32,-132.76 -763.68,-240.4 -1136.62,-390.28 -328.98,-132.2 -691.58,-317.98 -998.42,-490.4 -106.65,-59.92 -127.36,-109.41 -261.89,-82.1l-852.7 287.32c-381.62,127.16 -726.48,242.36 -1115.62,372.13 -398.9,133 -753.91,251.34 -1145.17,381.71 -365.24,121.71 -1531.88,701.91 -1531.88,-4.98 0,-259.01 599.15,-1934.96 729.09,-2324.69l665.24 -1997.56c14.13,-129.63 -402.82,-791.9 -589.34,-1259.17 -620.6,-1554.62 -804.99,-2729.6 -804.99,-4402.11 0,-1942.22 783.65,-3856.68 1863.26,-5418.84 558.49,-808.13 1619.23,-1868.88 2427.37,-2427.37 468.57,-323.84 983.64,-658.6 1526.17,-901.19 1233.1,-551.39 2444.7,-962.07 3892.67,-962.07 2307.09,0 3454.78,379.33 5311.26,1383.58 242.57,131.2 502.87,319.94 734,479.68 1865.63,1289.33 3410.95,3486.71 3985.77,5723.7 172.07,669.6 272.07,1317.56 304.86,1953.35z"/>
   <path class="fil0" d="M11088 10209.5l2349.06 0 0 5167.94c0,114.75 198.46,313.21 313.21,313.21l469.81 0 0 783.03 -3132.08 0 0 -783.03 469.81 0c114.75,0 313.2,-198.46 313.2,-313.21l0 -4071.72c0,-114.74 -198.45,-313.2 -313.2,-313.2l-469.81 0 0 -783.02zm-783.02 -469.81l0 1722.65c0,114.74 198.45,313.2 313.21,313.2l469.81 0 0 3132.09 -469.81 0c-114.76,0 -313.21,198.45 -313.21,313.21l0 1722.65c0,114.74 198.45,313.2 313.21,313.2l4071.7 0c114.76,0 313.21,-198.46 313.21,-313.2l0 -1722.65c0,-114.76 -198.45,-313.21 -313.21,-313.21l-469.81 0 0 -5167.94c0,-114.76 -198.46,-313.22 -313.2,-313.22l-3288.69 0c-114.76,0 -313.21,198.46 -313.21,313.22z"/>
   <path class="fil0" d="M11871.01 7116.56c-41.51,-268.32 238.17,-781.99 751.46,-811.61 985.98,-56.89 1103.67,1484.86 63.14,1544.92 -230.93,13.32 -421.41,-86.09 -552.17,-212.71 -156.78,-151.83 -228.08,-298.66 -262.43,-520.6zm-783.01 -195.75c0,684.88 212.99,1228.36 862.97,1564.38 769.99,398.04 1721.88,47.73 2110.85,-704.72 570.41,-1103.41 -403.52,-2269.1 -1251.18,-2269.1 -684.88,0 -1228.36,212.99 -1564.39,862.97 -51.46,99.58 -158.25,401.68 -158.25,546.47z"/>
   <path class="fil0" d="M20171.05 12950.07c0,265.73 160.55,391.52 430.66,391.52 325.73,0 368.74,-338.7 414.26,-642.82 175.2,-1170.54 127.43,-2489.13 -213.39,-3590.63 -87.84,-283.91 -181.25,-568.12 -295.68,-839.68 -105.02,-249.25 -215.07,-642.93 -531.6,-642.93 -223.16,0 -400.84,164.56 -408.09,396.94 -4.12,131.69 151.17,448.84 206.77,587.39 297.1,740.55 403.49,1220.78 504.07,2001.6 18.37,142.66 0.82,274.45 16.23,414.45 73.11,664.44 -3.63,327.89 -7.22,748.18 -5.47,639.43 -116.01,785.47 -116.01,1175.98z"/>
   <path class="fil0" d="M18761.6 6607.6c0,721.94 783.03,486.65 783.03,156.6 0,-721.95 -783.03,-486.65 -783.03,-156.6z"/>
  </g>
 </g>
</svg>
