<?xml version="1.0" encoding="UTF-8"?>
<!DOCTYPE svg PUBLIC "-//W3C//DTD SVG 1.1//EN" "http://www.w3.org/Graphics/SVG/1.1/DTD/svg11.dtd">
<!-- Creator: CorelDRAW 2020 (64-Bit) -->
<svg xmlns="http://www.w3.org/2000/svg" xml:space="preserve" width="279.4mm" height="241.3mm" version="1.1" style="shape-rendering:geometricPrecision; text-rendering:geometricPrecision; image-rendering:optimizeQuality; fill-rule:evenodd; clip-rule:evenodd"
viewBox="0 0 27940 24130"
 xmlns:xlink="http://www.w3.org/1999/xlink"
 xmlns:xodm="http://www.corel.com/coreldraw/odm/2003">
 <defs>
  <style type="text/css">
   <![CDATA[
    .fil0 {fill:#373435}
   ]]>
  </style>
 </defs>
 <g id="Capa_x0020_1">
  <metadata id="CorelCorpID_0Corel-Layer"/>
  <g id="_2283772031440">
   <path class="fil0" d="M27080.9 4846.02l0 13358.8c0,1258.83 -946.26,2539.66 -2067.56,2942.01 -429.03,153.94 -825.67,245.89 -1423.95,245.89l-10170.92 0c-1475.06,0 -2511.41,-672.07 -3135.9,-1772.43 -520.79,-917.62 -355.6,-2517.82 -355.6,-3743.14 0,-580.32 1008.17,-861.72 1274.33,-110.5 323.01,911.59 -974.62,4310.43 2419.58,4310.43l9766.1 0c722.43,0 1254.36,-128.79 1655.79,-469.49 357.14,-303.1 722.49,-820.1 722.49,-1453.36l0 -13257.62c0,-626.37 -351.5,-1121.54 -695.68,-1429.6 -398.81,-356.97 -944.91,-493.25 -1682.6,-493.25l-9766.1 0c-1124.74,0 -2014.94,380.31 -2319.5,1475.6 -281.37,1011.92 218.6,2561.09 -251.35,3088.37 -323.61,363.07 -1173.67,303.59 -1173.67,-667.65 0,-987.54 -73.09,-2156.43 220.54,-3017.99 169.59,-497.62 385.59,-781.98 698.11,-1123.54l231.43 -223.98c256.05,-241.39 490.3,-392.74 823.87,-542.35 438.55,-196.74 933.67,-304.1 1568.16,-304.1l10170.92 0c598.28,0 994.92,91.95 1423.95,245.89 1121.3,402.35 2067.56,1683.18 2067.56,2942.01z"/>
   <path class="fil0" d="M6890.88 6920.67c0,638.78 -194.05,674.76 -771.68,1252.39l-1771.06 1771.07c-235.85,235.85 -739.77,686.91 -898.18,923.47l11689.03 -0.05c308.99,-0.81 1062.58,-56.87 1062.58,657.87 0,680.64 -681.26,659.43 -1011.88,657.99l-11739.73 -0.17c333.43,497.93 3298.85,3149.65 3429.87,3557.31 231,718.78 -619.61,1154.64 -1116.69,657.13 -797.43,-798.15 -1554.24,-1557.95 -2351.13,-2354.84l-1745.75 -1745.75c-293.27,-293.18 -453.11,-497.55 -493.36,-683.37l0 -186.13c45.46,-207.76 241.97,-422.45 569.26,-749.74 248.51,-248.51 459.94,-459.92 708.43,-708.43 438.33,-438.33 3283.88,-3397.55 3589.17,-3498.63 525.4,-173.97 851.12,294.56 851.12,449.88z"/>
  </g>
 </g>
</svg>
