<?xml version="1.0" encoding="UTF-8"?>
<!DOCTYPE svg PUBLIC "-//W3C//DTD SVG 1.1//EN" "http://www.w3.org/Graphics/SVG/1.1/DTD/svg11.dtd">
<!-- Creator: CorelDRAW 2020 (64-Bit) -->
<svg xmlns="http://www.w3.org/2000/svg" xml:space="preserve" width="279.4mm" height="241.3mm" version="1.1" style="shape-rendering:geometricPrecision; text-rendering:geometricPrecision; image-rendering:optimizeQuality; fill-rule:evenodd; clip-rule:evenodd"
viewBox="0 0 27940 24130"
 xmlns:xlink="http://www.w3.org/1999/xlink"
 xmlns:xodm="http://www.corel.com/coreldraw/odm/2003">
 <defs>
  <style type="text/css">
   <![CDATA[
    .fil0 {fill:#373435}
   ]]>
  </style>
 </defs>
 <g id="Capa_x0020_1">
  <metadata id="CorelCorpID_0Corel-Layer"/>
  <g id="_2283774999200">
   <path class="fil0" d="M14212.92 14178.19l-502.11 0.58 -33.88 278.79c0,1014.36 -62.53,5307.03 52.1,5948.5 193.26,1081.38 1355.58,959.19 2050.65,959.19 1003.28,0 2006.56,0 3009.84,0 957.91,0 2024.97,44.76 2969.09,0.48 469.47,-22.02 749.47,-227.98 978.14,-506.16 267.78,-325.8 217.05,-743.42 217.05,-1308.46 0,-2003.64 0,-4007.25 0,-6010.86l-494.76 0c0,686.07 63.93,6470.63 -48.02,6828.67 -157.54,503.79 -573.71,461.25 -941.47,460.37l-5566.18 -0.04c-377.21,0 -1017.26,69.61 -1305.47,-55.14 -370.85,-160.55 -385.64,-510.72 -385,-1016.84 2.34,-1859.63 0.02,-3719.44 0.02,-5579.08z"/>
   <path class="fil0" d="M11945.24 13705.11l-34.77 -59.09c-3.83,-7.29 -10.8,-21.38 -14.43,-28.57 -33.26,-65.75 7.25,-2.41 -33.26,-77.2l-453.54 0 0.28 6340.97c7.37,1280.18 -729.57,948.03 -2886.42,948.03 -1278.16,0 -2556.3,0 -3834.44,0 -386.22,0 -933.05,64.27 -1189.69,-88.47 -296.7,-176.56 -337.77,-470.22 -335.97,-942.18l0.12 -3834.56c-168.83,-146.32 -81.46,-112.96 -371.07,-123.69l-114.86 132.52 -10.3 4156.91c-0.47,398.53 95.12,611.88 334.72,860.98 340.29,353.78 647.68,375.22 1233.49,374.51l4205.54 -0.02c702.84,0 2180.25,83.9 2686.45,-76.01 314.91,-99.48 594.87,-381.02 712.04,-689.8 129.35,-340.81 106.11,-841.36 106.1,-1295.73 0,-1866.2 0.01,-3732.4 0.01,-5598.6z"/>
   <path class="fil0" d="M2668.35 6412.68l494.77 0c0,-760.61 0,-1521.21 0,-2281.83 0,-2536.83 -233.01,-2267.67 2267.68,-2267.67l4576.6 0c803.77,0 1409.91,-159.91 1402.4,906.51 -10.66,1516.25 -0.56,3036.35 -0.56,4553.04l453.54 0 82.46 161.61c0,-911.85 50.25,-4454.77 -33.3,-5051.87 -115.75,-827.31 -647.27,-1109.77 -1450.73,-1105.57l-6433.22 -0.7c-457.35,-2.13 -715.34,92.11 -963.83,314.31 -561.21,501.81 -395.81,1160.16 -395.81,2160.51 0,870.54 0,1741.1 0,2611.66z"/>
   <path class="fil0" d="M13676.93 6767.3c8.12,7.98 53.33,47.18 69.84,54.21 80.42,34.28 27.38,21.32 133.78,29 90.6,6.56 234.42,-2.95 332.37,-2.34 0,-591.03 -40.29,-4172.46 15.46,-4433.54 153.23,-717.72 847.55,-551.45 1674.99,-551.45l5607.5 -0.13c1211.76,-4.85 948.17,645.88 948.17,2432.74 0,758.29 0,1516.61 0,2274.92l494.76 0 0 -3718c0.39,-636.52 -37.59,-981.35 -559.01,-1337.6 -155.5,-106.26 -231.51,-126.5 -452.4,-166.06 -363.81,-65.13 -5433.95,-21.86 -6203.93,-21.86 -405.64,0 -840.79,-29.18 -1178.9,58.02 -1140.77,294.26 -882.63,1844.68 -882.63,2869.34 0,837.58 0,1675.17 0,2512.75z"/>
   <path class="fil0" d="M13676.93 8559.22c0,818.04 -55.92,1915.56 1159.38,2039.9l6509.51 4.94c628.3,0.37 919.49,-31.05 1248.11,-359.88 391.03,-391.26 359.87,-560.07 359.87,-1290.15l-494.76 0c0,954.07 -187.06,1117.45 -948.17,1114.16l-6225.96 -0.12c-1209.08,0.72 -1071.99,-350.98 -1071.99,-1671.42l-453.53 0c-5.53,12.38 -24.69,68.34 -25.79,70.67 -32.51,67.6 -23.97,49.29 -56.67,91.9z"/>
   <path class="fil0" d="M13676.93 14457.56l33.88 -278.79 502.11 -0.58c0,-1384.96 -18.95,-1554.12 1113.22,-1553.84l5359.97 0c1073.12,0 1772.93,-212.91 1772.93,915.9l494.76 0c0,-1315.16 -666.32,-1451.89 -1814.14,-1451.89 -894.22,0 -6084.46,-61.48 -6512.6,43.06 -1113.14,271.81 -950.13,1419.89 -950.13,2326.14z"/>
   <path class="fil0" d="M11409.24 13540.25l453.54 0c40.51,74.79 0,11.45 33.26,77.2 3.63,7.19 10.6,21.28 14.43,28.57l34.77 59.09c0,-249.6 -10.83,-515.47 -65.95,-726.2 -98.45,-376.41 -414.22,-718.35 -783.56,-824.42 -431.01,-123.81 -3405.92,-66.13 -4015.69,-66.13 -1037.9,0 -2193.48,-48.41 -3216.49,-0.5 -467.85,21.92 -841.88,280.66 -1029.9,578.1 -234.24,370.6 -165.3,895.25 -165.3,1483.93 168.84,146.31 81.47,112.96 371.09,123.7l114.84 -132.54c8.84,-418.02 -41.83,-920.55 121.66,-1197.72 206.3,-349.74 477.06,-319.12 1000.4,-318.98 706.62,0.2 6408.56,-48.27 6656.01,23.36 431.91,125.03 476.89,522.68 476.89,892.54z"/>
   <path class="fil0" d="M11409.24 8676.75c0,1282.57 -8.21,1391.32 -1236.92,1391.32l-5318.74 0c-987.63,0 -1690.46,256.03 -1690.46,-994.21l-494.77 0c0,698.08 10.51,823.6 380.28,1191.14 320.47,318.52 651.7,339.22 1268.95,339.06 1071.99,-0.28 2143.99,0 3215.98,0 1024.46,0 2165.52,47.85 3175.25,0.5 1243.67,-58.34 1236.43,-1153.38 1236.43,-1970.79 -130.54,67.84 -340.3,41.39 -536,42.98z"/>
   <path class="fil0" d="M3864.05 7678.52c91.47,0.19 207.03,-6.95 294.39,-2.95 78.77,3.62 83.16,-4 158.3,21.99 193.1,66.85 -3.84,-132.72 83.3,62.06l0.12 -2062.13c1.73,-391.92 41.27,-371.8 -123.8,-618.33l-288.63 0c-201.73,301.26 -123.7,645.82 -123.7,1236.92 0,454.15 0.02,908.3 0.02,1362.44z"/>
   <polygon class="fil0" points="2668.35,9073.86 3163.12,9073.86 3163.12,6412.68 2668.35,6412.68 "/>
   <polygon class="fil0" points="22459.04,8954.03 22953.8,8954.03 22953.8,6570.71 22459.04,6570.71 "/>
   <path class="fil0" d="M4400.04 7759.62c-87.14,-194.78 109.8,4.79 -83.3,-62.06 -75.14,-25.99 -79.53,-18.37 -158.3,-21.99 -87.36,-4 -202.92,3.14 -294.39,2.95 0,329.24 0.08,658.47 -0.02,987.71 -0.07,338.34 -80.2,730.98 215.66,778.88 377.2,61.11 321.24,-327.99 320.4,-655.15 -0.88,-343.4 -0.05,-686.92 -0.05,-1030.34z"/>
   <path class="fil0" d="M13676.93 8559.22c32.7,-42.61 24.16,-24.3 56.67,-91.9 1.1,-2.33 20.26,-58.29 25.79,-70.67l453.53 0 0 -1548.48c-97.95,-0.61 -241.77,8.9 -332.37,2.34 -106.4,-7.68 -53.36,5.28 -133.78,-29 -16.51,-7.03 -61.72,-46.23 -69.84,-54.21l0 1791.92z"/>
   <path class="fil0" d="M3864.05 3182.55c0,1001.83 -124.45,1319.38 329.84,1319.38 314.98,0 206.15,-847.05 206.15,-1319.38 0,-379.12 -535.99,-408.41 -535.99,0z"/>
   <path class="fil0" d="M11409.24 8676.75c195.7,-1.59 405.46,24.86 536,-42.98l0 -1149.43 -82.46 -161.61 -453.54 0 0 1354.02z"/>
  </g>
 </g>
</svg>
