<?xml version="1.0" encoding="UTF-8"?>
<!DOCTYPE svg PUBLIC "-//W3C//DTD SVG 1.1//EN" "http://www.w3.org/Graphics/SVG/1.1/DTD/svg11.dtd">
<!-- Creator: CorelDRAW 2020 (64-Bit) -->
<svg xmlns="http://www.w3.org/2000/svg" xml:space="preserve" width="279.4mm" height="241.3mm" version="1.1" style="shape-rendering:geometricPrecision; text-rendering:geometricPrecision; image-rendering:optimizeQuality; fill-rule:evenodd; clip-rule:evenodd"
viewBox="0 0 27940 24130"
 xmlns:xlink="http://www.w3.org/1999/xlink"
 xmlns:xodm="http://www.corel.com/coreldraw/odm/2003">
 <defs>
  <style type="text/css">
   <![CDATA[
    .fil0 {fill:#373435}
   ]]>
  </style>
 </defs>
 <g id="Capa_x0020_1">
  <metadata id="CorelCorpID_0Corel-Layer"/>
  <g id="_2283663531296">
   <path class="fil0" d="M8877.15 8708.99c-55.12,-284.83 171.99,-1200.5 317.35,-1556.99 341.05,-836.38 1046.83,-1543.57 1855.82,-1931.9 1874.19,-899.66 4127.11,-74.91 5025.31,1796.24 246.2,512.89 298.71,898.86 367.56,1548.38 42.88,404.39 -148.43,1153.46 -307.97,1545.04 -336.6,826.1 -1052.51,1549.05 -1855.68,1932.04 -2417.28,1152.69 -5270.86,-631.84 -5362.73,-3099.14 -6.41,-172.11 -22.53,-145.1 -39.66,-233.67zm-780.97 -273.35c0,940.12 103.47,1530.18 507.09,2304.39 172.8,331.43 503,798.57 771.57,1063.72 108.27,106.91 241.46,184.95 283.28,341.52 -294.29,78.57 -1041.82,667.61 -1337.13,927.69 -210.41,185.31 -361.61,375.63 -545.93,586.49 -1013.84,1159.82 -1514.18,2695.32 -1514.18,4265.01 -180.47,-120.86 -276.7,-276.7 -420.08,-438.99l-399.95 -459.13c-257.43,-329.1 -499.99,-655.91 -714.93,-1042.25 -578.34,-1039.49 -1226.47,-2670.55 -1239,-3954.47 -11.37,-1164.86 -48.98,-1908.83 291.31,-3108.94 141.33,-498.38 277.36,-858.94 457.53,-1299.67 327.16,-800.36 800.98,-1481.35 1327.3,-2148.02 989.62,-1253.55 2588.01,-2345.01 4099.59,-2851.06 902.01,-301.97 1632.91,-444.92 2573.93,-471.86 177.11,-5.08 242.8,-43.42 428.28,-43.42 199.45,0 216.21,33.05 390.29,42.34 539.04,28.79 471.67,-29.72 1182.25,106.37 1039.43,199.07 1699.02,418.78 2605.7,869.64 510.78,253.99 1390.74,814.27 1825.95,1219.84l663.85 624.75c88.13,95.28 100.63,139.29 194.05,235.49 1271.74,1309.36 2072.94,3288.17 2282.33,5136.89 292.31,2580.81 -584.21,5288.28 -2301.46,7123.36 -127.13,135.84 -230.53,319.53 -438.99,459.13 0,-441.63 -129.27,-1882.66 -390.12,-2265.19 -218.63,-320.62 -742.28,-113.95 -742.28,234.66 0,6.76 237.7,813.85 274.47,1248.42 40.29,476.41 37.92,991.89 37.92,1524.03 -114,30.44 -1356.72,978.69 -1796.24,1015.26l2.22 -2345.13c-6.09,-145.95 -24.46,-208.1 -110.18,-280.33 -225.48,-190.01 -665.96,-149.45 -675.37,358.28l2.36 2618.63c-212.89,49.59 -443.2,136.9 -663.51,195.56 -675.98,179.97 -1223.03,252.76 -1914.94,271.78 -186.51,5.14 -232.31,43.4 -428.3,43.4 -199.58,0 -216.24,-33.17 -390.31,-42.34 -1056.63,-55.66 -1226.56,-79.69 -2257.22,-359.04 -114.95,-31.16 -230.31,-79.34 -359.21,-109.36l2.2 -2579.42c-0.83,-685.77 -764.18,-626.73 -785.4,-117.16l2.23 2345.13c-439.54,-36.57 -1682.26,-984.82 -1796.24,-1015.26 0,-1655.84 12.18,-2455.38 842.13,-3843.71 415.16,-694.49 1058.46,-1333.91 1742.27,-1772.09 1022.52,-655.23 666.95,-334.65 1696.46,-31.76 824.57,242.6 1748.41,243.81 2575.65,8.53 1183.85,-336.7 616.27,-627.3 1697.39,13.77 289.9,171.91 532.82,431.8 739.67,431.8 259.51,0 390.49,-165.98 390.49,-429.54 0,-350.65 -995.69,-872.05 -1093.36,-898.11 58.83,-220.38 1561.94,-1325.31 1561.94,-3319.14 0,-1404.57 -380.58,-2469.68 -1337.42,-3426.53 -2204.92,-2204.92 -5930.92,-1642.96 -7371,1278.27 -202.44,410.63 -428.95,1146.25 -428.95,1757.77zm-5427.77 2499.11c0,1753.58 205.37,3185.62 910.67,4595.19 139.6,279.02 264.61,546.83 414.74,795.77 692.39,1148.15 631.95,901.77 1274.37,1732.38 706.46,913.42 2112.25,1807.6 3140.21,2326.58 906.08,457.45 2544.03,937.02 3905.03,937.02l52.15 0c1086.58,-0.27 1634.33,-10.84 2712.42,-281.2 1627.9,-408.25 2718.65,-1026.8 4013.58,-2038.98 587.21,-459 1319.09,-1319.74 1740.53,-1890.98 1010.72,-1369.99 1829.2,-3539.26 1829.2,-5433.85l0 -702.87c0,-2494.67 -1234.42,-5041.67 -2918.89,-6726.14 -421.51,-421.51 -824.14,-749.06 -1314.84,-1106.17 -1402.25,-1020.46 -3517.7,-1812.71 -5450.33,-1812.71 -1718.36,0 -3163.3,233.29 -4517.1,910.67 -279.01,139.61 -546.83,264.61 -795.76,414.74 -790.76,476.88 -1392.11,908.43 -2057.57,1573.94 -204.58,204.6 -373.22,389.58 -565.84,605.64 -91.84,103 -172.89,219.57 -258.85,326.87 -1179.46,1472.11 -2113.72,3742.02 -2113.72,5774.1z"/>
   <path class="fil0" d="M10712.43 10309.97c0,379.08 360.28,553.1 715.34,729.45 1556.74,773.19 3189.52,-211.62 3189.52,-651.35 0,-376.04 -304.57,-595.91 -736.35,-267.77 -117.08,88.98 -198.32,133.88 -343.18,203.5 -192.42,92.51 -616.43,220.41 -869.26,212.94 -975.45,-28.79 -1264.14,-578.2 -1565.59,-578.2 -197.37,0 -390.48,140.88 -390.48,351.43z"/>
   <path class="fil0" d="M17584.98 14761.52c177.41,0 390.49,-185.51 390.49,-351.43 0,-414.3 -397.98,-583.79 -663.44,-351.26 -276.41,242.12 -112.74,702.69 272.95,702.69z"/>
  </g>
 </g>
</svg>
