<?xml version="1.0" encoding="UTF-8"?>
<!DOCTYPE svg PUBLIC "-//W3C//DTD SVG 1.1//EN" "http://www.w3.org/Graphics/SVG/1.1/DTD/svg11.dtd">
<!-- Creator: CorelDRAW 2020 (64-Bit) -->
<svg xmlns="http://www.w3.org/2000/svg" xml:space="preserve" width="279.4mm" height="241.3mm" version="1.1" style="shape-rendering:geometricPrecision; text-rendering:geometricPrecision; image-rendering:optimizeQuality; fill-rule:evenodd; clip-rule:evenodd"
viewBox="0 0 27940 24130"
 xmlns:xlink="http://www.w3.org/1999/xlink"
 xmlns:xodm="http://www.corel.com/coreldraw/odm/2003"
 enable-background="new 0 0 512 512">
 <defs>
  <style type="text/css">
   <![CDATA[
    .fil0 {fill:url(#id0);fill-rule:nonzero}
   ]]>
  </style>
  <linearGradient id="id0" gradientUnits="userSpaceOnUse" x1="6255.69" y1="11705.49" x2="23348.34" y2="11705.49">
   <stop offset="0" style="stop-opacity:1; stop-color:#6DCFD8"/>
   <stop offset="1" style="stop-opacity:1; stop-color:#B6CDC7"/>
  </linearGradient>
 </defs>
 <g id="Capa_x0020_1">
  <metadata id="CorelCorpID_0Corel-Layer"/>
  <g id="_2124987959904">
   <g>
    <path class="fil0" d="M23348.34 11705.48c0,-4723.32 -3822.38,-8546.33 -8546.32,-8546.33 -4723.28,0 -8546.33,3822.34 -8546.33,8546.33 0,4602.2 3680.17,8470.72 8409.16,8544.66 80.33,3.6 254.79,0.24 258.16,0.2 1.4,0.04 7.34,-0.07 8.91,-0.1 4665.3,-69.11 8416.42,-3870.86 8416.42,-8544.76zm-8546.32 -8045.57c4446.52,0 8045.57,3598.4 8045.57,8045.57 0,1853.75 -623.19,3611.49 -1769.66,5034.95 -19.94,-897.12 -601.65,-1676.47 -1460.79,-1948.52l-1619.82 -512.84c-91.67,-78.46 -67.55,-44.67 -1558.77,-783.53l0 -693.96c650.16,-461.64 1100.37,-1190.37 1183.16,-2030.65 308.71,-52.35 544.57,-321.69 544.57,-645.05 0,-479.6 0,-2056.29 0,-2548.24 0,-561.09 -456.46,-1017.55 -1017.55,-1017.55l-25.85 0c-4.81,0 -8.72,-3.91 -8.72,-8.72 0,-561.09 -456.46,-1017.54 -1017.55,-1017.54l-2643.74 0c-1111.66,0 -2016.03,904.37 -2016.03,2016.02 0,138.28 112.11,250.39 250.38,250.39 138.28,0 250.39,-112.11 250.39,-250.39 0,-835.53 679.73,-1515.27 1515.27,-1515.27l2643.74 0.01c284.97,0 516.8,231.83 516.8,516.79 0,280.94 228.54,509.48 509.47,509.48l25.83 -0.01c284.97,0 516.79,231.82 516.79,516.79l0 1424.89 -279.73 0c-156.31,0 -283.47,-127.16 -283.47,-283.43l0 -292.15c0,-555.31 -542.13,-947.07 -1069.33,-772.8 -793.81,262.37 -1668.2,262.44 -2463.05,-0.14 -527.3,-174.13 -1069.22,217.63 -1069.22,772.84l0 292.25c0,156.31 -127.16,283.47 -283.43,283.47l-279.71 0 0 -295.55c0,-138.28 -112.11,-250.39 -250.39,-250.39 -138.27,0 -250.38,112.11 -250.38,250.39l0 1418.88c0,323.39 235.82,592.7 544.56,645.08 82.76,840.31 533.01,1569.02 1183.13,2030.65l0 694.22c-1488.16,737.39 -1468.5,706.35 -1558.54,783.53l-1619.03 512.58c-859.14,272.05 -1440.85,1051.4 -1460.79,1948.52 -1146.51,-1423.53 -1769.69,-3181.26 -1769.69,-5035.02 0,-4446.56 3598.4,-8045.56 8045.57,-8045.56l0.01 0.01zm-2870.57 12555.09l194.6 -194.22c203.11,-202.74 251.15,-510.39 119.58,-765.4l-308.7 -598.54 1011.74 -497.06c-107.67,450.32 -104.16,945.2 -52.31,1409.05 0.03,0.36 0.1,0.73 0.13,1.07 129.5,1156.49 601.59,2468.28 1073.37,3531.83 -776.94,-781.85 -1815.26,-1931.93 -2076.76,-2729.19 -18.19,-55.41 -3.47,-115.78 38.36,-157.54l-0.01 0zm6.08 -6711.7l279.72 0c432.42,0 784.2,-351.8 784.2,-784.22l0 -292.25c0,-212.7 207.18,-364.73 412.39,-297.02 895.16,295.68 1881.12,295.66 2776.29,-0.2 202.81,-67 411.43,83.63 411.43,297.34l0 292.15c0,432.42 351.8,784.2 784.22,784.2l279.73 0 0 622.58c0,84.66 -68.87,153.5 -153.53,153.5 -201.44,0 -369.23,158.12 -381.95,359.98 -77.24,1225.04 -1100.04,2184.63 -2328.5,2184.63 -1228.44,0 -2251.26,-959.59 -2328.51,-2184.63 -12.72,-201.84 -180.51,-359.98 -381.95,-359.98 -84.66,0 -153.5,-68.84 -153.5,-153.5l0 -622.58 -0.04 0zm2864.25 10190.49c-162.48,-325.9 -381.89,-790.17 -601.34,-1328.89l411.15 -1617.12 380.82 0 410.89 1616.59c-219.86,539.86 -439.54,1004.59 -601.52,1329.42zm-329.13 -4472.26c-141.72,118.37 -432.42,361.21 -659.7,551.03 -47.44,39.63 -115.38,39.39 -162.31,0.83l-264.65 -327.19c-43.77,-438.91 -39.43,-924.11 97.65,-1339.58l989.01 1114.91zm-741.39 1081.94c63.84,0 127.63,-10.32 189.29,-29.88l223.21 282.1 -252.15 991.74c-144.42,-416.39 -274.62,-850.56 -370.33,-1280.88 67.81,24.14 138.74,36.92 209.98,36.92zm1330.39 -56.42l-523.57 0 -203.75 -257.49 494.92 -413.43 447.68 382.78 -215.28 288.14zm738.28 -499.8l-616.3 -526.96 939.12 -1104.45c133.84,412.56 137.71,890.49 95.65,1320.35l-255.86 313.55c-47.47,38.25 -115.48,37.82 -162.62,-2.48l0.01 -0.01zm-998.42 -2422.52c402.92,0 787.47,-85.36 1136.27,-238.76l0 474.32 -1110.65 1306.19 -1161.91 -1309.8 0 -470.75c348.8,153.43 733.35,238.8 1136.29,238.8zm910.65 4221.96l-252.94 -995.15 227.41 -304.37c63.77,21.1 129.9,32.12 196.13,32.12 69.16,0 138.07,-12.16 204.17,-34.99 -95.54,435.06 -226.51,874.76 -374.77,1302.37l0 0.02zm-6686.26 -241.3l0 -517.39c0,-697.73 446.94,-1308.05 1112.13,-1518.64l1334.87 -422.62c13.35,31.18 -0.37,1.1 327.7,638.2 31.22,60.49 19.84,133.41 -28.31,181.45l-194.6 194.22c-176.37,176.03 -237.87,432.02 -160.41,668.01 319.59,974.18 1576.84,2323.23 2439.72,3167.41 -1832.05,-213.06 -3523.03,-1042.51 -4831.08,-2390.67l-0.02 0.03zm6720.58 2390.71c465.34,-455.2 1048.6,-1059.98 1535.85,-1672.52 86.1,-108.23 68.13,-265.74 -40.1,-351.83 -108.24,-86.06 -265.7,-68.13 -351.83,40.1 -393.17,494.28 -852.8,985.23 -1257.81,1392.15 473.22,-1066.29 947.07,-2382.52 1075.37,-3542.58 0.04,-0.43 0.1,-0.87 0.14,-1.28 50.85,-460.73 53.85,-951.41 -53.25,-1400.32l1011.75 497.06 -308.71 598.54c-131.56,255.09 -83.49,562.65 119.62,765.43l194.56 194.2c41.83,41.76 56.52,102.13 38.36,157.54 -39.23,119.58 -98.92,253.89 -177.41,399.21 -65.73,121.69 -20.36,273.59 101.29,339.29 121.68,65.74 273.58,20.36 339.28,-101.28 92.64,-171.46 164.18,-333.37 212.66,-481.16 77.42,-235.99 15.96,-491.95 -160.41,-668.02l-194.56 -194.19c-48.14,-48.08 -59.53,-121.02 -28.34,-181.48 325.66,-632.46 314.55,-607.49 327.77,-638.34l1335.3 422.74c665.21,210.63 1112.12,820.91 1112.12,1518.68l0 517.39c-1305.11,1345.15 -2994.99,2177.28 -4831.61,2390.69l-0.04 -0.02z"/>
   </g>
  </g>
 </g>
</svg>
